{
  "accessors": [
    {
      "bufferView": 2,
      "componentType": 5126,
      "count": 65532,
      "max": [
        4.814705848693848,
        4.416027545928955,
        2.9155712127685547
      ],
      "min": [
        -6.220425128936768,
        -5.060886383056641,
        -2.1174793243408203
      ],
      "type": "VEC3"
    },
    {
      "bufferView": 2,
      "byteOffset": 786384,
      "componentType": 5126,
      "count": 65532,
      "max": [
        0.9998664855957031,
        0.9993347525596619,
        0.9999967813491821
      ],
      "min": [
        -0.9999327063560486,
        -0.9999385476112366,
        -0.9996991157531738
      ],
      "type": "VEC3"
    },
    {
      "bufferView": 1,
      "componentType": 5126,
      "count": 65532,
      "max": [
        0.9997276067733765,
        0.9978026151657104
      ],
      "min": [
        0.000244140625,
        0.0002470804611220956
      ],
      "type": "VEC2"
    },
    {
      "bufferView": 1,
      "byteOffset": 524256,
      "componentType": 5126,
      "count": 65532,
      "max": [
        0.9997276067733765,
        0.9978026151657104
      ],
      "min": [
        0.000244140625,
        0.0002470804611220956
      ],
      "type": "VEC2"
    },
    {
      "bufferView": 0,
      "componentType": 5125,
      "count": 290037,
      "type": "SCALAR"
    },
    {
      "bufferView": 2,
      "byteOffset": 1572768,
      "componentType": 5126,
      "count": 65532,
      "max": [
        5.273930549621582,
        6.378051280975342,
        2.8075008392333984
      ],
      "min": [
        -5.985605716705322,
        -4.672384262084961,
        -2.9015493392944336
      ],
      "type": "VEC3"
    },
    {
      "bufferView": 2,
      "byteOffset": 2359152,
      "componentType": 5126,
      "count": 65532,
      "max": [
        0.9999907612800598,
        0.9999801516532898,
        0.9999989867210388
      ],
      "min": [
        -0.9993486404418945,
        -0.9998458623886108,
        -0.9999879002571106
      ],
      "type": "VEC3"
    },
    {
      "bufferView": 1,
      "byteOffset": 1048512,
      "componentType": 5126,
      "count": 65532,
      "max": [
        0.9997521638870239,
        0.9997557401657104
      ],
      "min": [
        0.000244140625,
        0.00024719967041164637
      ],
      "type": "VEC2"
    },
    {
      "bufferView": 1,
      "byteOffset": 1572768,
      "componentType": 5126,
      "count": 65532,
      "max": [
        0.9997521638870239,
        0.9997557401657104
      ],
      "min": [
        0.000244140625,
        0.00024719967041164637
      ],
      "type": "VEC2"
    },
    {
      "bufferView": 0,
      "byteOffset": 1160148,
      "componentType": 5125,
      "count": 264690,
      "type": "SCALAR"
    },
    {
      "bufferView": 2,
      "byteOffset": 3145536,
      "componentType": 5126,
      "count": 65532,
      "max": [
        5.051884651184082,
        5.67529296875,
        2.9155712127685547
      ],
      "min": [
        -6.315913677215576,
        -5.077268600463867,
        -2.85414981842041
      ],
      "type": "VEC3"
    },
    {
      "bufferView": 2,
      "byteOffset": 3931920,
      "componentType": 5126,
      "count": 65532,
      "max": [
        0.9999539852142334,
        0.9999940395355225,
        0.9999999403953552
      ],
      "min": [
        -0.9999302625656128,
        -0.9999954104423523,
        -0.9999301433563232
      ],
      "type": "VEC3"
    },
    {
      "bufferView": 1,
      "byteOffset": 2097024,
      "componentType": 5126,
      "count": 65532,
      "max": [
        0.9996713399887085,
        0.9997557401657104
      ],
      "min": [
        0.000244140625,
        0.00024529232177883387
      ],
      "type": "VEC2"
    },
    {
      "bufferView": 1,
      "byteOffset": 2621280,
      "componentType": 5126,
      "count": 65532,
      "max": [
        0.9996713399887085,
        0.9997557401657104
      ],
      "min": [
        0.000244140625,
        0.00024529232177883387
      ],
      "type": "VEC2"
    },
    {
      "bufferView": 0,
      "byteOffset": 2218908,
      "componentType": 5125,
      "count": 235422,
      "type": "SCALAR"
    },
    {
      "bufferView": 2,
      "byteOffset": 4718304,
      "componentType": 5126,
      "count": 11019,
      "max": [
        -3.2120823860168457,
        2.3550868034362793,
        2.406190872192383
      ],
      "min": [
        -6.308701038360596,
        -5.062928199768066,
        -2.4155569076538086
      ],
      "type": "VEC3"
    },
    {
      "bufferView": 2,
      "byteOffset": 4850532,
      "componentType": 5126,
      "count": 11019,
      "max": [
        0.9443024396896362,
        0.9956371784210205,
        0.9999954104423523
      ],
      "min": [
        -0.9999236464500427,
        -0.9993969798088074,
        -0.9985678791999817
      ],
      "type": "VEC3"
    },
    {
      "bufferView": 1,
      "byteOffset": 3145536,
      "componentType": 5126,
      "count": 11019,
      "max": [
        0.9996195435523987,
        0.9902635216712952
      ],
      "min": [
        0.000244140625,
        0.00026317371521145105
      ],
      "type": "VEC2"
    },
    {
      "bufferView": 1,
      "byteOffset": 3233688,
      "componentType": 5126,
      "count": 11019,
      "max": [
        0.9996195435523987,
        0.9902635216712952
      ],
      "min": [
        0.000244140625,
        0.00026317371521145105
      ],
      "type": "VEC2"
    },
    {
      "bufferView": 0,
      "byteOffset": 3160596,
      "componentType": 5125,
      "count": 39183,
      "type": "SCALAR"
    }
  ],
  "asset": {
    "extras": {
      "author": "matousekfoto (https://sketchfab.com/matousekfoto)",
      "license": "CC-BY-4.0 (http://creativecommons.org/licenses/by/4.0/)",
      "source": "https://sketchfab.com/3d-models/towel-stack-56ebf3bf8cb445c9a743d3bf31e314bd",
      "title": "Towel stack"
    },
    "generator": "Sketchfab-16.0.0",
    "version": "2.0"
  },
  "bufferViews": [
    {
      "buffer": 0,
      "byteLength": 3317328,
      "name": "floatBufferViews",
      "target": 34963
    },
    {
      "buffer": 0,
      "byteLength": 3321840,
      "byteOffset": 3317328,
      "byteStride": 8,
      "name": "floatBufferViews",
      "target": 34962
    },
    {
      "buffer": 0,
      "byteLength": 4982760,
      "byteOffset": 6639168,
      "byteStride": 12,
      "name": "floatBufferViews",
      "target": 34962
    }
  ],
  "buffers": [
    {
      "byteLength": 11621928,
      "uri": "scene.bin"
    }
  ],
  "extensionsUsed": [
    "KHR_materials_unlit"
  ],
  "images": [
    {
      "uri": "textures/towel-stack_u1_v1_baseColor.jpeg"
    }
  ],
  "materials": [
    {
      "doubleSided": true,
      "extensions": {
        "KHR_materials_unlit": {}
      },
      "name": "towel-stack_u1_v1",
      "pbrMetallicRoughness": {
        "baseColorTexture": {
          "index": 0
        },
        "metallicFactor": 0.0
      }
    }
  ],
  "meshes": [
    {
      "name": "towel-stack_towel-stack_u1_v1_0",
      "primitives": [
        {
          "attributes": {
            "NORMAL": 1,
            "POSITION": 0,
            "TEXCOORD_0": 2,
            "TEXCOORD_1": 3
          },
          "indices": 4,
          "material": 0,
          "mode": 4
        }
      ]
    },
    {
      "name": "towel-stack_towel-stack_u1_v1_0",
      "primitives": [
        {
          "attributes": {
            "NORMAL": 6,
            "POSITION": 5,
            "TEXCOORD_0": 7,
            "TEXCOORD_1": 8
          },
          "indices": 9,
          "material": 0,
          "mode": 4
        }
      ]
    },
    {
      "name": "towel-stack_towel-stack_u1_v1_0",
      "primitives": [
        {
          "attributes": {
            "NORMAL": 11,
            "POSITION": 10,
            "TEXCOORD_0": 12,
            "TEXCOORD_1": 13
          },
          "indices": 14,
          "material": 0,
          "mode": 4
        }
      ]
    },
    {
      "name": "towel-stack_towel-stack_u1_v1_0",
      "primitives": [
        {
          "attributes": {
            "NORMAL": 16,
            "POSITION": 15,
            "TEXCOORD_0": 17,
            "TEXCOORD_1": 18
          },
          "indices": 19,
          "material": 0,
          "mode": 4
        }
      ]
    }
  ],
  "nodes": [
    {
      "children": [
        1
      ],
      "matrix": [
        0.9759005904197693,
        0.04554496333003039,
        0.2134096771478653,
        0.0,
        0.21498580276966095,
        -0.033032614737748885,
        -0.9760583639144897,
        0.0,
        -0.03740506246685982,
        0.998416006565094,
        -0.04202806949615456,
        0.0,
        0.0,
        0.0,
        0.0,
        1.0
      ],
      "name": "Sketchfab_model"
    },
    {
      "children": [
        2
      ],
      "matrix": [
        0.009999999776482582,
        0.0,
        0.0,
        0.0,
        0.0,
        0.0,
        0.009999999776482582,
        0.0,
        0.0,
        -0.009999999776482582,
        0.0,
        0.0,
        0.0,
        0.0,
        0.0,
        1.0
      ],
      "name": "towel-stack.fbx"
    },
    {
      "children": [
        3
      ],
      "name": "RootNode"
    },
    {
      "children": [
        4,
        5,
        6,
        7
      ],
      "matrix": [
        7.549789959870878e-06,
        1.1102230246251565e-14,
        99.99999999999972,
        0.0,
        99.99999999999962,
        -4.371139006309477e-06,
        -7.549789954319763e-06,
        0.0,
        4.371139006309477e-06,
        99.99999999999991,
        -3.552713678800501e-13,
        0.0,
        0.0,
        0.0,
        0.0,
        1.0
      ],
      "name": "towel-stack"
    },
    {
      "mesh": 0,
      "name": "towel-stack_towel-stack_u1_v1_0"
    },
    {
      "mesh": 1,
      "name": "towel-stack_towel-stack_u1_v1_0"
    },
    {
      "mesh": 2,
      "name": "towel-stack_towel-stack_u1_v1_0"
    },
    {
      "mesh": 3,
      "name": "towel-stack_towel-stack_u1_v1_0"
    }
  ],
  "samplers": [
    {
      "magFilter": 9729,
      "minFilter": 9987,
      "wrapS": 10497,
      "wrapT": 10497
    }
  ],
  "scene": 0,
  "scenes": [
    {
      "name": "Sketchfab_Scene",
      "nodes": [
        0
      ]
    }
  ],
  "textures": [
    {
      "sampler": 0,
      "source": 0
    }
  ]
}
